HIERARCHY
ROOT Hips
{
	OFFSET 0.00000 0.00000 0.00000
	CHANNELS 6 Xposition Yposition Zposition Yrotation Zrotation Xrotation 
	JOINT Lumbar
	{
		OFFSET 0 0 0
		CHANNELS 3 Zrotation Xrotation Yrotation
		JOINT Neck
		{
			OFFSET 0.00 0.2701 0.00
			CHANNELS 3 Zrotation Xrotation Yrotation
			End Site
			{
				OFFSET 0.00 0.1379 0.00
			}
		}
		JOINT RightShoulder
		{
			OFFSET 0.0119 0.2289 0.1181
			CHANNELS 3 Zrotation Xrotation Yrotation
			JOINT RightElbow
			{
				OFFSET 0.00 -0.1475 0.00
				CHANNELS 2 Zrotation Yrotation
				JOINT RightWrist
				{
					OFFSET 0.00 -0.1605 0.00
					CHANNELS 2 Zrotation Xrotation
					End Site
					{
						OFFSET 0.0040 -0.1068 0.0006
					}
				}
			}
		}
		JOINT LeftShoulder
		{
			OFFSET 0.0119 0.2289 -0.1181
			CHANNELS 3 Zrotation Xrotation Yrotation
			JOINT LeftElbow
			{
				OFFSET 0.00 -0.1475 0.00
				CHANNELS 2 Zrotation Yrotation
				JOINT LeftWrist
				{
					OFFSET 0.00 -0.1605 0.00
					CHANNELS 2 Zrotation Xrotation
					End Site
					{
						OFFSET 0.0040 -0.1068 -0.0006
					}
				}
			}
		}
	}
	JOINT RightHip
	{
		OFFSET 0.0316 -0.0424 0.0458
		CHANNELS 3 Zrotation Xrotation Yrotation
		JOINT RightKnee
		{
			OFFSET 0.00 -0.2438 0.00
			CHANNELS 1 Zrotation
			JOINT RightAnkle
			{
				OFFSET 0.00 -0.2449 0.00
				CHANNELS 3 Zrotation Xrotation Yrotation
				End Site
				{
					OFFSET 0.1237 -0.0542 0.0051
				}
			}
		}
	}
	JOINT LeftHip
	{
		OFFSET 0.0316 -0.0424 -0.0458
		CHANNELS 3 Zrotation Xrotation Yrotation
		JOINT LeftKnee
		{
			OFFSET 0.00 -0.2438 0.00
			CHANNELS 1 Zrotation
			JOINT LeftAnkle
			{
				OFFSET 0.00 -0.2449 0.00
				CHANNELS 3 Zrotation Xrotation Yrotation
				End Site
				{
					OFFSET 0.1237 -0.0542 -0.0051
				}
			}
		}
	}
}
MOTION
Frames: 19
Frame Time: 0.02
-0.00088 7e-05 -0.00047 -175.49138 -26.78831 1.40675 45.53622 -0.78948 -6.04013 -15.38119 3.11899 -0.45579 -23.8463 -5.66859 -5.15283 27.47237 99.21758 9.61553 1.08704 -25.37325 1.58006 18.04441 33.7357 -165.62875 34.8456 -10.70545 27.94374 -1.77204 -2.53179 -20.25894 -7.09518 -5.17803 -3.38006 32.72478 3.792 -2.26687 -24.14308 -6.71857 3.8188 2.6091
-0.00031 7e-05 -0.00026 -175.46632 -26.88088 1.40608 45.46064 -0.76851 -6.15059 -15.19413 3.11424 -0.45614 -23.75026 -5.64242 -5.38168 27.28327 99.14688 9.64161 1.08462 -25.34222 2.09133 16.34325 33.59479 -159.86473 33.11583 -9.75887 28.10068 -1.82096 -2.67695 -20.2701 -7.07875 -5.16092 -3.3721 32.8898 3.87675 -1.75152 -24.15744 -6.70798 3.74799 2.57346
0.00026 7e-05 -5e-05 -175.44126 -26.97316 1.40543 45.38519 -0.74762 -6.26087 -15.00761 3.10949 -0.45648 -23.65459 -5.61622 -5.61043 27.09494 99.0763 9.66756 1.08222 -25.31131 2.60098 14.64749 33.4544 -154.11875 31.39144 -8.81524 28.25718 -1.86978 -2.82182 -20.2813 -7.06234 -5.14384 -3.36414 33.05438 3.96113 -1.23812 -24.1718 -6.69743 3.67743 2.53795
0.00083 7e-05 0.00017 -175.41627 -27.06544 1.40477 45.30982 -0.72672 -6.37101 -14.82112 3.10476 -0.45683 -23.55886 -5.59011 -5.83869 26.90645 99.00578 9.69355 1.0798 -25.28038 3.11069 12.95154 33.31394 -148.37233 29.66693 -7.87155 28.41365 -1.91856 -2.96657 -20.29244 -7.04595 -5.12678 -3.3562 33.21891 4.0456 -0.72441 -24.18612 -6.68688 3.60684 2.50241
0.0014 7e-05 0.00038 -175.3913 -27.158 1.40408 45.23436 -0.70574 -6.48128 -14.63409 3.10002 -0.45717 -23.46275 -5.56409 -6.06679 26.71713 98.93523 9.71971 1.07738 -25.24934 3.62197 11.25029 33.17289 -142.60833 27.9372 -6.92499 28.57052 -1.96741 -3.11152 -20.30351 -7.02956 -5.1097 -3.34824 33.38385 4.13046 -0.20863 -24.20044 -6.67629 3.536 2.46675
0.00196 7e-05 0.00059 -175.36604 -27.24971 1.40353 45.15892 -0.68503 -6.59157 -14.44868 3.09526 -0.45752 -23.36802 -5.53753 -6.29686 26.53088 98.86461 9.74524 1.07501 -25.21868 4.12814 9.56629 33.03388 -136.90085 26.22423 -5.98764 28.72624 -2.01616 -3.25615 -20.31499 -7.01312 -5.09265 -3.3403 33.54764 4.21385 0.29972 -24.21487 -6.66582 3.46603 2.43155
0.00253 7e-05 0.0008 -175.34142 -27.34303 1.40269 45.08352 -0.66381 -6.70169 -14.26021 3.09055 -0.45787 -23.27057 -5.51205 -6.5228 26.33868 98.79406 9.77195 1.07253 -25.18728 4.64415 7.84909 32.89099 -131.08482 24.47906 -5.03261 28.88412 -2.06509 -3.40141 -20.32563 -6.99678 -5.07553 -3.33233 33.7136 4.3001 0.8225 -24.22906 -6.65512 3.39437 2.39545
0.0031 7e-05 0.00101 -175.31618 -27.43485 1.40213 45.00812 -0.64305 -6.81198 -14.07457 3.08578 -0.45821 -23.17572 -5.48562 -6.75242 26.15194 98.72375 9.79767 1.07017 -25.15659 5.15089 6.1631 32.75158 -125.37091 22.76424 -4.09418 29.03995 -2.1138 -3.54583 -20.33703 -6.98037 -5.05851 -3.3244 33.8775 4.3837 1.3319 -24.24346 -6.64463 3.32429 2.36019
0.00367 7e-05 0.00122 -175.29026 -27.5249 1.40188 44.93249 -0.62287 -6.92251 -13.89225 3.081 -0.45856 -23.08365 -5.45783 -6.98724 25.97191 98.65247 9.82177 1.06786 -25.12665 5.64729 4.51222 32.61675 -119.77148 21.08318 -3.17447 29.19359 -2.16247 -3.69034 -20.34947 -6.96375 -5.04146 -3.31646 34.0392 4.46415 1.82536 -24.25817 -6.63439 3.25606 2.32592
0.00425 8e-05 0.00145 -175.26847 -27.62534 1.39972 44.85751 -0.59941 -7.03175 -13.6904 3.07646 -0.45891 -22.97438 -5.43726 -7.19426 25.75336 98.58294 9.85397 1.06499 -25.09206 6.20618 2.65018 32.45656 -113.48211 19.19782 -2.14231 29.36081 -2.21208 -3.83768 -20.35625 -6.94796 -5.02414 -3.30841 34.21449 4.56301 2.41181 -24.27127 -6.6227 3.17693 2.28584
0.00479 6e-05 0.00163 -175.23785 -27.70374 1.40167 44.78161 -0.58282 -7.14362 -13.53008 3.07128 -0.45925 -22.90218 -5.40183 -7.45849 25.61603 98.51219 9.86989 1.06348 -25.06749 6.6313 1.23959 32.34925 -108.66874 17.75004 -1.3505 29.49874 -2.25925 -3.9769 -20.37474 -6.9307 -5.00764 -3.30071 34.36051 4.62285 2.80127 -24.28764 -6.6141 3.12096 2.25809
0.00524 -2e-05 0.00171 -175.18393 -27.72225 1.41446 44.6995 -0.58558 -7.2634 -13.48221 3.06545 -0.45956 -22.92639 -5.32129 -7.89666 25.70454 98.42429 9.83566 1.06522 -25.06896 6.70272 1.02742 32.39399 -107.76522 17.45685 -1.19713 29.56066 -2.30341 -4.11233 -20.42761 -6.90695 -4.99126 -3.29276 34.43025 4.57636 2.65242 -24.31432 -6.61358 3.1276 2.2638
0.00564 -0.00013 0.00175 -175.12104 -27.71859 1.43147 44.61726 -0.59512 -7.38557 -13.47636 3.05877 -0.45986 -22.98882 -5.22608 -8.39131 25.87422 98.3422 9.7873 1.06913 -25.08083 6.63809 1.27372 32.49073 -108.36146 17.60892 -1.28775 29.59237 -2.34452 -4.23693 -20.49181 -6.8821 -4.97601 -3.28533 34.46984 4.49079 2.30613 -24.34404 -6.61619 3.15756 2.28191
0.00604 -0.00022 0.0018 -175.06158 -27.72461 1.44687 44.53738 -0.60121 -7.50637 -13.45224 3.05171 -0.46017 -23.03723 -5.14107 -8.84631 26.00466 98.26075 9.74748 1.07144 -25.08874 6.62604 1.33956 32.55892 -108.37376 17.59077 -1.28207 29.63508 -2.38449 -4.35344 -20.54937 -6.8595 -4.9617 -3.2785 34.52058 4.42233 2.04773 -24.37152 -6.61766 3.17758 2.29466
0.00654 -0.00032 0.00186 -175.0046 -27.73199 1.46101 44.44735 -0.60887 -7.62891 -13.42462 3.04781 -0.46047 -23.07152 -5.0433 -9.35158 26.1446 98.14707 9.69379 1.07342 -25.09307 6.6497 1.29813 32.64723 -108.01132 17.44885 -1.22044 29.68927 -2.43474 -4.52175 -20.61331 -6.82989 -4.94153 -3.26833 34.58203 4.35557 1.79347 -24.40265 -6.61807 3.19531 2.3065
0.00682 -0.00042 0.00189 -174.94064 -27.7316 1.47875 44.37899 -0.61487 -7.74773 -13.41437 3.03721 -0.46078 -23.14436 -4.96591 -9.77665 26.2847 98.12494 9.67177 1.0803 -25.1078 6.5706 1.57678 32.70689 -108.74174 17.65648 -1.32677 29.71238 -2.46335 -4.5835 -20.66658 -6.81415 -4.93347 -3.265 34.61402 4.27722 1.48782 -24.42688 -6.62127 3.22279 2.32288
0.00657 -0.00048 0.00183 -174.85684 -27.71282 1.50549 44.36574 -0.61459 -7.86153 -13.44053 3.00753 -0.46108 -23.31438 -4.97337 -9.86373 26.3998 98.14193 9.68444 1.06618 -25.14455 6.20774 2.73119 32.66681 -112.49594 18.83955 -1.89259 29.65721 -2.42811 -4.31869 -20.68804 -6.84115 -4.9619 -3.28258 34.57221 4.16624 1.05417 -24.43158 -6.63279 3.27616 2.35134
0.0061 -0.00053 0.00174 -174.76679 -27.68751 1.53568 44.3752 -0.6125 -7.97056 -13.48294 2.97123 -0.46137 -23.52246 -4.99838 -9.88226 26.51378 98.27984 9.73717 1.06162 -25.1922 5.752 4.17415 32.59765 -117.23363 20.3383 -2.60948 29.57185 -2.37179 -3.9526 -20.69834 -6.88144 -5.00195 -3.30669 34.5018 4.04687 0.58162 -24.42917 -6.64673 3.3377 2.38348
0.00571 -0.00058 0.00165 -174.68147 -27.66665 1.56423 44.37739 -0.61113 -8.07776 -13.51871 2.93858 -0.46167 -23.71223 -4.99747 -10.00595 26.63124 98.51515 9.81202 1.07707 -25.23756 5.36124 5.41423 32.54684 -121.26887 21.61217 -3.21968 29.50015 -2.32868 -3.65696 -20.71338 -6.91282 -5.03437 -3.32633 34.44431 3.93799 0.15018 -24.42986 -6.65864 3.39235 2.41219
